<?xml version="1.0" encoding="UTF-8" standalone="no"?>
<!-- Created with Inkscape (http://www.inkscape.org/) -->
<svg xmlns:dc="http://purl.org/dc/elements/1.1/" xmlns:cc="http://creativecommons.org/ns#" xmlns:rdf="http://www.w3.org/1999/02/22-rdf-syntax-ns#" xmlns:svg="http://www.w3.org/2000/svg" xmlns="http://www.w3.org/2000/svg" xmlns:xlink="http://www.w3.org/1999/xlink" version="1.1" width="100" height="100">
  <title>Solaar attention</title>
  <defs>
    <linearGradient id="gradient_blue">
      <stop style="stop-color:#009099;stop-opacity:1" offset="0" />
      <stop style="stop-color:#00a899;stop-opacity:0.9" offset="1" />
    </linearGradient>
    <linearGradient id="gradient_yellow">
      <stop style="stop-color:#f0ff18;stop-opacity:1" offset="0" />
      <stop style="stop-color:#f8ff40;stop-opacity:0.9" offset="1" />
    </linearGradient>
    <linearGradient x1="5" y1="50" x2="95" y2="50" id="gradient_rect" xlink:href="#gradient_yellow" gradientUnits="userSpaceOnUse" />
    <linearGradient x1="37" y1="50" x2="63" y2="50" id="gradient_dot" xlink:href="#gradient_blue" gradientUnits="userSpaceOnUse" />
  </defs>
  <metadata>
    <rdf:RDF>
      <cc:Work rdf:about="">
        <dc:format>image/svg+xml</dc:format>
        <dc:type rdf:resource="http://purl.org/dc/dcmitype/StillImage" />
        <dc:title>Solaar attention</dc:title>
        <dc:creator>
          <cc:Agent>
            <dc:title>Daniel Pavel</dc:title>
          </cc:Agent>
        </dc:creator>
        <cc:license rdf:resource="http://creativecommons.org/licenses/by-sa/3.0/" />
        <dc:date>2013-06-25</dc:date>
        <dc:identifier>solaar-attention</dc:identifier>
      </cc:Work>
      <cc:License rdf:about="http://creativecommons.org/licenses/by-sa/3.0/">
        <cc:permits rdf:resource="http://creativecommons.org/ns#Reproduction" />
        <cc:permits rdf:resource="http://creativecommons.org/ns#Distribution" />
        <cc:requires rdf:resource="http://creativecommons.org/ns#Notice" />
        <cc:requires rdf:resource="http://creativecommons.org/ns#Attribution" />
        <cc:permits rdf:resource="http://creativecommons.org/ns#DerivativeWorks" />
        <cc:requires rdf:resource="http://creativecommons.org/ns#ShareAlike" />
      </cc:License>
    </rdf:RDF>
  </metadata>
  <g>
    <path d="M 21.5,5.5 C 12.636,5.5 5.5,12.636 5.5,21.5 L 5.5,78.5 C 5.5,87.364 12.636,94.5 21.5,94.5 L 78.5,94.5 C 87.364,94.5 94.5,87.364 94.5,78.5 L 94.5,21.5 C 94.5,12.636 87.364,5.5 78.5,5.5 L 21.5,5.5 z M 37.6875,16.6875 46.71875,32.3125 C 47.784179,32.115965 48.877705,32 50,32 51.122295,32 52.215821,32.115965 53.28125,32.3125 L 62.3125,16.6875 72.6875,22.6875 63.65625,38.3125 C 65.078123,39.972287 66.191785,41.898777 66.9375,44 L 85,44 85,56 66.9375,56 C 66.191785,58.101223 65.078123,60.027713 63.65625,61.6875 L 72.6875,77.3125 62.3125,83.3125 53.28125,67.6875 C 52.215821,67.884035 51.122295,68 50,68 48.877705,68 47.784179,67.884035 46.71875,67.6875 L 37.6875,83.3125 27.3125,77.3125 36.34375,61.6875 C 34.921877,60.027713 33.808215,58.101223 33.0625,56 L 15,56 15,44 33.0625,44 C 33.808215,41.898777 34.921877,39.972287 36.34375,38.3125 L 27.3125,22.6875 37.6875,16.6875 z" style="fill:url(#gradient_rect);fill-opacity:1;fill-rule:nonzero;stroke:#16161d;stroke-width:1;stroke-linecap:butt;stroke-linejoin:round;stroke-miterlimit:4;stroke-opacity:1" />
    <path d="M 62,50 A 12,12 0 1 1 38,50 12,12 0 1 1 62,50 z" style="fill:url(#gradient_dot);fill-opacity:1;fill-rule:nonzero;stroke:#16161d;stroke-opacity:1" />
  </g>
</svg>
