<?xml version="1.0" encoding="UTF-8" standalone="no"?>
<svg
   xmlns:dc="http://purl.org/dc/elements/1.1/"
   xmlns:cc="http://creativecommons.org/ns#"
   xmlns:rdf="http://www.w3.org/1999/02/22-rdf-syntax-ns#"
   xmlns:svg="http://www.w3.org/2000/svg"
   xmlns="http://www.w3.org/2000/svg"
   xmlns:xlink="http://www.w3.org/1999/xlink"
   xmlns:sodipodi="http://sodipodi.sourceforge.net/DTD/sodipodi-0.dtd"
   xmlns:inkscape="http://www.inkscape.org/namespaces/inkscape"
   version="1.1"
   id="svg2"
   inkscape:version="0.91 r13725"
   sodipodi:docname="solaar.svg"
   inkscape:export-filename="/home/chris/Git/Solaar/_includes/favicon.png"
   inkscape:export-xdpi="66.666672"
   inkscape:export-ydpi="66.666672"
   width="43.200001"
   height="43.200001">
  <metadata
     id="metadata21">
    <rdf:RDF>
      <cc:Work
         rdf:about="">
        <dc:format>image/svg+xml</dc:format>
        <dc:type
           rdf:resource="http://purl.org/dc/dcmitype/StillImage" />
        <dc:title></dc:title>
      </cc:Work>
    </rdf:RDF>
  </metadata>
  <sodipodi:namedview
     pagecolor="#ffffff"
     bordercolor="#666666"
     borderopacity="1"
     objecttolerance="10"
     gridtolerance="10"
     guidetolerance="10"
     inkscape:pageopacity="0"
     inkscape:pageshadow="2"
     inkscape:window-width="1807"
     inkscape:window-height="797"
     id="namedview19"
     showgrid="false"
     fit-margin-top="0"
     fit-margin-left="0"
     fit-margin-right="0"
     fit-margin-bottom="0"
     inkscape:zoom="2.36"
     inkscape:cx="1.4135593"
     inkscape:cy="-4.4"
     inkscape:window-x="3000"
     inkscape:window-y="840"
     inkscape:window-maximized="0"
     inkscape:current-layer="svg2" />
  <defs
     id="defs4">
    <linearGradient
       id="gradient_blue">
      <stop
         style="stop-color:#009099;stop-opacity:1"
         offset="0"
         id="stop7" />
      <stop
         style="stop-color:#00a899;stop-opacity:0.9"
         offset="1"
         id="stop9" />
    </linearGradient>
    <linearGradient
       x1="5"
       y1="50"
       x2="95"
       y2="50"
       id="gradient_rect"
       xlink:href="#gradient_blue"
       gradientUnits="userSpaceOnUse" />
    <linearGradient
       x1="37"
       y1="50"
       x2="63"
       y2="50"
       id="gradient_dot"
       xlink:href="#gradient_blue"
       gradientUnits="userSpaceOnUse" />
  </defs>
  <g
     transform="matrix(0.48,0,0,0.48,-2.4,-2.4)"
     id="g13">
    <path
       d="m 21.5,5.5 c -8.864,0 -16,7.136 -16,16 l 0,57 c 0,8.864 7.136,16 16,16 l 57,0 c 8.864,0 16,-7.136 16,-16 l 0,-57 c 0,-8.864 -7.136,-16 -16,-16 l -57,0 z m 16.1875,11.1875 9.03125,15.625 C 47.784179,32.115965 48.877705,32 50,32 c 1.122295,0 2.215821,0.115965 3.28125,0.3125 l 9.03125,-15.625 10.375,6 -9.03125,15.625 C 65.078123,39.972287 66.191785,41.898777 66.9375,44 L 85,44 85,56 66.9375,56 c -0.745715,2.101223 -1.859377,4.027713 -3.28125,5.6875 l 9.03125,15.625 -10.375,6 -9.03125,-15.625 C 52.215821,67.884035 51.122295,68 50,68 48.877705,68 47.784179,67.884035 46.71875,67.6875 l -9.03125,15.625 -10.375,-6 9.03125,-15.625 C 34.921877,60.027713 33.808215,58.101223 33.0625,56 L 15,56 15,44 33.0625,44 c 0.745715,-2.101223 1.859377,-4.027713 3.28125,-5.6875 l -9.03125,-15.625 10.375,-6 z"
       style="fill:url(#gradient_rect);fill-opacity:1;fill-rule:nonzero;stroke:#16161d;stroke-width:1;stroke-linecap:butt;stroke-linejoin:round;stroke-miterlimit:4;stroke-opacity:1"
       id="path15"
       inkscape:connector-curvature="0" />
    <path
       d="m 62,50 a 12,12 0 1 1 -24,0 12,12 0 1 1 24,0 z"
       style="fill:url(#gradient_dot);fill-opacity:1;fill-rule:nonzero;stroke:#16161d;stroke-opacity:1"
       id="path17"
       inkscape:connector-curvature="0" />
  </g>
</svg>
